{"title":"Lucy (2014) 480p Eng HC Subs fiveofseven zombiRG","uid":12019547,"size":455482034,"categoryP":"video","categoryS":"movies","magnet":"?xt=urn:btih:01c98594cb5282e22daf40733ed3ec25acc1d4a8&amp;dn=Lucy+%282014%29+480p+Eng+HC+Subs+fiveofseven+zombiRG&amp;tr=udp%3A%2F%2Ftracker.openbittorrent.com%3A80&amp;tr=udp%3A%2F%2Fopen.demonii.com%3A1337&amp;tr=udp%3A%2F%2Ftracker.coppersurfer.tk%3A6969&amp;tr=udp%3A%2F%2Fexodus.desync.com%3A6969","seeders":4,"leechers":1,"uploader":"fiveofseven","files":3,"time":1434395324,"description":"I wasn't planning to release a 480p\nThis was a test encoded for a larger project,\nthat came out good enough to share.\n\n\nEnglish Subs Hardcoded for Non-English Dialogue\n\n\nSpecial thanks to &quot;monodioo&quot; for providing translations, where needed.\nStandard Blu-Ray subtitles did not translate all dialogue.\nThese were translated from a Vietnamese subtitle, \nwhich covered all dialogue in the movie.\n\n &lt;a href=&quot;\nhttps://yuq.me/users/25/564/9pqOy6b4BE.jpg&quot; rel=&quot;nofollow&quot; target=&quot;_NEW&quot;&gt;\nhttps://yuq.me/users/25/564/9pqOy6b4BE.jpg&lt;/a&gt;\n\n\nPLOT - A woman, accidentally caught in a dark deal\nturns the tables on her captors and transforms into\na merciless warrior evolved beyond human logic.\n\n\nGeneral\nComplete name : C:Lucy 480p HC Extended Eng Subs fiveofseven zombiRG.mp4 [i](&quot;Extended&quot; is referring to MORE SUBTITLES and NOT a longer cut of the movie)[/i]\nFormat : MPEG-4\nFormat profile : Base Media\nCodec ID : isom\nFile size : 432 MiB\nDuration : 1h 29mn\nOverall bit rate mode : Variable\nOverall bit rate : 676 Kbps\nEncoded date : UTC 2015-02-14 20:29:07\nTagged date : UTC 2015-02-15 01:12:55\nWriting application : My MP4Box GUI 0.6.0.6 \nComment : Encoded by fiveofseven\n\nVideo\nID : 1\nFormat : AVC\nFormat/Info : Advanced Video Codec\nFormat profile : &lt;a class=&quot;__cf_email__&quot; href=&quot;/cdn-cgi/l/email-protection&quot; data-cfemail=&quot;98d0f1fff0d8d4abb6a8&quot;&gt;[email&amp;#160;protected]&lt;/a&gt;&lt;script data-cfhash='f9e31' type=&quot;text/javascript&quot;&gt;\n/* &lt;![CDATA[ */!function(){try{var t=&quot;currentScript&quot;in document?document.currentScript:function(){for(var t=document.getElementsByTagName(&quot;script&quot;),e=t.length;e--;)if(t[e].getAttribute(&quot;data-cfhash&quot;))return t[e]}();if(t&amp;&amp;t.previousSibling){var e,r,n,i,c=t.previousSibling,a=c.getAttribute(&quot;data-cfemail&quot;);if(a){for(e=&quot;&quot;,r=parseInt(a.substr(0,2),16),n=2;a.length-n;n+=2)i=parseInt(a.substr(n,2),16)^r,e+=String.fromCharCode(i);e=document.createTextNode(e),c.parentNode.replaceChild(e,c)}t.parentNode.removeChild(t);}}catch(u){}}()/* ]]&gt; */&lt;/script&gt;\nFormat settings, CABAC : Yes\nFormat settings, ReFrames : 4 frames\nCodec ID : avc1\nCodec ID/Info : Advanced Video Coding\nDuration : 1h 29mn\nBit rate : 544 Kbps\nMaximum bit rate : 4 689 Kbps\nWidth : 720 pixels\nHeight : 304 pixels\nDisplay aspect ratio : 2.35:1\nFrame rate mode : Constant\nFrame rate : 23.976 fps\nColor space : YUV\nChroma subsampling : 4:2:0\nBit depth : 8 bits\nScan type : Progressive\nBits/(Pixel*Frame) : 0.104\nStream size : 348 MiB (80%)\nTitle : Luch HC 480 quicky encode.mp4\nWriting library : x264 core 133 r2334 a3ac64b\nEncoding settings : [:Qno]\nLanguage : English\nEncoded date : UTC 2015-02-14 18:16:37\nTagged date : UTC 2015-02-14 20:29:36\n\nAudio\nID : 2\nFormat : AAC\nFormat/Info : Advanced Audio Codec\nFormat profile : LC\nCodec ID : 40\nDuration : 1h 29mn\nBit rate mode : Variable\nBit rate : 128 Kbps\nMaximum bit rate : 135 Kbps\nChannel count : 2 channels\nChannel positions : Front: L R\nSampling rate : 48.0 KHz\nCompression mode : Lossy\nDelay relative to video : 83ms\nStream size : 81.8 MiB (19%)\nTitle : aac 2.0.mp4\nLanguage : English\nEncoded date : UTC 2015-02-14 20:29:30\nTagged date : UTC 2015-02-14 20:29:36\n\n &lt;a href=&quot;\nhttps://yuq.me/users/25/564/M2JvoxKzrj.png&quot; rel=&quot;nofollow&quot; target=&quot;_NEW&quot;&gt;\nhttps://yuq.me/users/25/564/M2JvoxKzrj.png&lt;/a&gt; &lt;a href=&quot;\nhttps://yuq.me/users/25/564/kerby9wz71.png&quot; rel=&quot;nofollow&quot; target=&quot;_NEW&quot;&gt;\nhttps://yuq.me/users/25/564/kerby9wz71.png&lt;/a&gt; &lt;a href=&quot;\nhttps://yuq.me/users/25/564/Ha1viT2jKo.png&quot; rel=&quot;nofollow&quot; target=&quot;_NEW&quot;&gt;\nhttps://yuq.me/users/25/564/Ha1viT2jKo.png&lt;/a&gt; &lt;a href=&quot;\nhttps://yuq.me/users/25/564/0NvjrYhCgD.png&quot; rel=&quot;nofollow&quot; target=&quot;_NEW&quot;&gt;\nhttps://yuq.me/users/25/564/0NvjrYhCgD.png&lt;/a&gt;\n &lt;a href=&quot;\nhttps://yuq.me/users/25/564/aegRQCBILx.png&quot; rel=&quot;nofollow&quot; target=&quot;_NEW&quot;&gt;\nhttps://yuq.me/users/25/564/aegRQCBILx.png&lt;/a&gt;","torrent":{"xt":"urn:btih:01c98594cb5282e22daf40733ed3ec25acc1d4a8","amp;dn":"Lucy+%282014%29+480p+Eng+HC+Subs+fiveofseven+zombiRG","amp;tr":["udp%3A%2F%2Ftracker.openbittorrent.com%3A80","udp%3A%2F%2Fopen.demonii.com%3A1337","udp%3A%2F%2Ftracker.coppersurfer.tk%3A6969","udp%3A%2F%2Fexodus.desync.com%3A6969"],"infoHash":"01c98594cb5282e22daf40733ed3ec25acc1d4a8","infoHashBuffer":{"type":"Buffer","data":[1,201,133,148,203,82,130,226,45,175,64,115,62,211,236,37,172,193,212,168]},"announce":[],"urlList":[]}}